HIERARCHY
ROOT Hips
{
 OFFSET 0.000000 0.000000 0.000000
 CHANNELS 6 Xposition Yposition Zposition Yrotation Xrotation Zrotation
 JOINT Chest
 {
  OFFSET 0.000000 9.585900 0.002600
  CHANNELS 3 Yrotation Xrotation Zrotation
  JOINT Chest2
  {
   OFFSET 0.000000 9.601200 -0.005300
   CHANNELS 3 Yrotation Xrotation Zrotation
   JOINT Chest3
   {
    OFFSET 0.000000 9.561800 0.000000
    CHANNELS 3 Yrotation Xrotation Zrotation
    JOINT Chest4
    {
     OFFSET 0.000000 9.552100 0.000000
     CHANNELS 3 Yrotation Xrotation Zrotation
     JOINT Neck
     {
      OFFSET 0.000000 14.453000 0.000000
      CHANNELS 3 Yrotation Xrotation Zrotation
      JOINT Head
      {
       OFFSET 0.000000 8.936500 -0.011300
       CHANNELS 3 Yrotation Xrotation Zrotation
       End Site
       {
        OFFSET 0.000000 17.073600 -0.006000
       }
      }
     }
     JOINT RightCollar
     {
      OFFSET -2.921100 9.558500 0.000000
      CHANNELS 3 Yrotation Xrotation Zrotation
      JOINT RightShoulder
      {
       OFFSET -13.519700 0.000000 0.000000
       CHANNELS 3 Yrotation Xrotation Zrotation
       JOINT RightElbow
       {
        OFFSET 0.000000 -29.696600 0.000000
        CHANNELS 3 Yrotation Xrotation Zrotation
        JOINT RightWrist
        {
         OFFSET 0.000000 -24.004700 0.000000
         CHANNELS 3 Yrotation Xrotation Zrotation
         End Site
         {
          OFFSET 0.000000 -17.728500 0.000000
         }
        }
       }
      }
     }
     JOINT LeftCollar
     {
      OFFSET 2.921100 9.558500 0.000000
      CHANNELS 3 Yrotation Xrotation Zrotation
      JOINT LeftShoulder
      {
       OFFSET 13.519700 0.000000 0.000000
       CHANNELS 3 Yrotation Xrotation Zrotation
       JOINT LeftElbow
       {
        OFFSET 0.000000 -29.696600 0.000000
        CHANNELS 3 Yrotation Xrotation Zrotation
        JOINT LeftWrist
        {
         OFFSET 0.000000 -24.004700 0.000000
         CHANNELS 3 Yrotation Xrotation Zrotation
         End Site
         {
          OFFSET 0.000000 -17.728500 0.000000
         }
        }
       }
      }
     }
    }
   }
  }
 }
 JOINT RightHip
 {
  OFFSET -7.771700 -0.012900 -0.001300
  CHANNELS 3 Yrotation Xrotation Zrotation
  JOINT RightKnee
  {
   OFFSET 0.000000 -40.869800 0.001200
   CHANNELS 3 Yrotation Xrotation Zrotation
   JOINT RightAnkle
   {
    OFFSET 0.000000 -39.717900 0.002100
    CHANNELS 3 Yrotation Xrotation Zrotation
    JOINT RightToe
    {
     OFFSET 0.000000 -4.965400 11.033500
     CHANNELS 3 Yrotation Xrotation Zrotation
     End Site
     {
      OFFSET 0.000000 -1.423100 5.872300
     }
    }
   }
  }
 }
 JOINT LeftHip
 {
  OFFSET 7.771700 -0.012900 -0.001300
  CHANNELS 3 Yrotation Xrotation Zrotation
  JOINT LeftKnee
  {
   OFFSET 0.000000 -40.869800 0.001200
   CHANNELS 3 Yrotation Xrotation Zrotation
   JOINT LeftAnkle
   {
    OFFSET 0.000000 -39.717900 0.002100
    CHANNELS 3 Yrotation Xrotation Zrotation
    JOINT LeftToe
    {
     OFFSET 0.000000 -4.965400 11.033500
     CHANNELS 3 Yrotation Xrotation Zrotation
     End Site
     {
      OFFSET 0.000000 -1.423100 5.872300
     }
    }
   }
  }
 }
}
MOTION
Frames: 8
Frame Time: 0.008333
0.000000 85.388000 0.000000 0.000000 -5.767877 0.000000 0.000000 11.653817 0.000000 0.000000 -5.885947 0.000000 0.000000 -0.000000 0.000000 0.000000 -0.000000 0.000000 0.000000 12.528835 0.000000 0.000000 0.711642 0.000000 0.000000 -0.000000 0.000000 0.000000 0.000000 -90.000000 0.000000 -2.309062 0.000000 0.000000 2.309062 0.000000 0.000000 -0.000000 0.000000 0.000000 -0.000000 90.000000 0.000000 -2.309062 0.000000 0.000000 2.309062 0.000000 0.000000 8.520406 0.000000 0.000000 1.905762 0.000000 -0.000000 -4.658285 0.000000 0.000000 -0.000000 0.000000 0.000000 8.520406 0.000000 0.000000 1.905762 0.000000 -0.000000 -4.658285 0.000000 0.000000 -0.000000 0.000000
-64.910062 63.131691 12.616526 163.403319 -51.605455 -0.856885 7.672530 24.798077 6.105701 1.147573 4.111515 0.633108 1.750542 6.573231 1.015690 6.191415 20.372654 4.030865 6.459350 14.362909 2.595387 11.140461 -9.082082 2.409910 2.022120 5.322993 6.409239 -5.134550 -11.585343 -15.512060 -111.693323 -58.731862 146.624764 10.098675 -0.060827 -3.920263 -15.437240 1.696413 1.341912 13.076147 -52.349352 22.725535 -137.394736 -68.185027 164.647157 14.090124 -14.854350 52.391515 -5.073548 -9.172854 8.107580 -27.467970 74.716483 -24.744308 2.036280 -13.065869 -2.884613 -0.374050 0.727348 -0.161537 -4.425826 -15.513230 -0.716006 12.333364 64.061234 5.478135 -2.352562 -10.280684 -0.164188 -0.218393 -0.518965 -0.082519
-64.910989 63.132669 12.621986 163.385059 -51.596170 -0.830791 7.659820 24.797683 6.079943 1.126364 4.118990 0.623667 1.744503 6.575525 1.005665 6.167209 20.383361 3.997984 6.445186 14.197877 2.559932 11.133642 -9.385982 2.337129 2.047992 5.289450 6.405726 -5.104614 -11.654189 -15.501160 -111.729438 -58.703021 146.636428 10.059026 -0.014028 -3.934389 -15.337334 1.669314 1.355568 12.483739 -52.096187 23.109928 -139.601575 -70.129215 166.487017 14.512761 -14.353124 53.167792 -5.071143 -9.188838 8.120261 -27.493030 74.713467 -24.797349 2.006603 -13.060191 -2.880749 -0.354036 0.724524 -0.149077 -4.411529 -15.516793 -0.723832 12.327299 64.047063 5.466584 -2.348572 -10.276819 -0.163436 -0.221562 -0.509006 -0.083868
-64.911227 63.135456 12.627854 163.371304 -51.595701 -0.812382 7.646616 24.804974 6.059647 1.105116 4.125602 0.613720 1.762091 6.572160 1.006577 6.122740 20.406223 3.958053 6.434396 14.036598 2.526974 11.132387 -9.683020 2.267848 2.077808 5.224697 6.387856 -5.086657 -11.673145 -15.475638 -111.812685 -58.658961 146.698155 10.023568 0.036731 -3.946851 -15.213267 1.635723 1.383281 11.922382 -51.850971 23.537394 -141.935690 -72.065117 168.369464 14.756678 -13.827555 53.797841 -5.062870 -9.190171 8.118591 -27.471771 74.704050 -24.787444 2.014566 -13.053491 -2.875580 -0.365364 0.727379 -0.151233 -4.396883 -15.506372 -0.730034 12.312425 64.026095 5.452891 -2.346551 -10.278190 -0.162323 -0.220596 -0.493420 -0.087702
-64.914227 63.138962 12.633774 163.347678 -51.596413 -0.771219 7.588534 24.831874 5.991616 1.129418 4.122231 0.617198 1.777449 6.567389 1.006975 6.114289 20.413309 3.941568 6.395150 13.897649 2.484195 11.130651 -9.969369 2.204275 2.106633 5.190372 6.384425 -5.091550 -11.673033 -15.465229 -111.977354 -58.600562 146.841935 10.052395 -0.054877 -4.017170 -15.095912 1.600747 1.406682 11.450552 -51.622967 23.960722 -144.056801 -73.949366 169.971032 14.847012 -13.234864 54.215487 -5.051675 -9.195304 8.108404 -27.477966 74.698057 -24.814624 2.005725 -13.045965 -2.866376 -0.362324 0.724649 -0.150877 -4.369065 -15.492323 -0.756944 12.292616 63.995999 5.438346 -2.337490 -10.274788 -0.161049 -0.225454 -0.482907 -0.091411
-64.916969 63.144799 12.639145 163.277533 -51.610781 -0.695603 7.604452 24.853582 5.957421 1.115803 4.130518 0.606820 1.774529 6.574401 0.998447 6.127895 20.410633 3.935132 6.362542 13.763942 2.441072 11.124038 -10.241298 2.149079 2.135370 5.167470 6.391977 -5.108022 -11.740701 -15.469915 -112.031317 -58.550229 146.896758 10.055182 -0.093224 -4.045244 -14.954594 1.547935 1.438240 11.087254 -51.413629 24.353808 -145.407671 -75.769958 170.736698 14.840194 -12.573051 54.360496 -5.012156 -9.191654 8.111493 -27.523283 74.687515 -24.889555 1.977773 -13.026282 -2.852592 -0.342761 0.712199 -0.144337 -4.295740 -15.450344 -0.789113 12.275119 63.952432 5.440679 -2.337818 -10.294830 -0.164488 -0.227134 -0.451765 -0.089973
-64.920055 63.149912 12.645965 163.245193 -51.615697 -0.651992 7.610804 24.861997 5.934320 1.088074 4.138931 0.585368 1.770169 6.586161 0.978673 6.132417 20.418430 3.923623 6.363692 13.616374 2.411782 11.109949 -10.497221 2.102504 2.214365 5.074753 6.373749 -5.171803 -11.750202 -15.430871 -112.083777 -58.498648 146.964261 10.046000 -0.102022 -4.060086 -14.770760 1.466329 1.498193 10.776056 -51.209243 24.740132 -145.298321 -77.527008 170.000423 14.770420 -11.864615 54.196312 -4.994817 -9.193314 8.112492 -27.553043 74.675671 -24.942291 1.955765 -13.010902 -2.842120 -0.328383 0.703026 -0.139120 -4.253113 -15.429529 -0.815974 12.282905 63.918047 5.461732 -2.343885 -10.290223 -0.164698 -0.230223 -0.441960 -0.091127
-64.922326 63.156284 12.652615 163.223741 -51.627076 -0.623202 7.605507 24.872850 5.906850 1.097865 4.142280 0.591814 1.767535 6.586972 0.967043 6.105951 20.444274 3.859641 6.376678 13.466159 2.417163 11.087621 -10.737592 2.061288 2.287124 4.991814 6.399840 -5.220665 -11.760319 -15.403498 -112.150320 -58.440628 147.044036 10.037524 -0.107938 -4.073644 -14.572202 1.379603 1.602074 10.373685 -50.988058 25.202147 -143.050461 -79.195357 167.133099 14.668115 -11.115316 53.721540 -4.981162 -9.183693 8.107117 -27.536369 74.666740 -24.937735 1.952380 -13.000716 -2.837837 -0.326851 0.694893 -0.140071 -4.231383 -15.408920 -0.831475 12.288583 63.897266 5.470988 -2.348135 -10.274980 -0.166440 -0.233009 -0.454207 -0.093558
